# xmcd
#
# Track frame offsets:
#	150
#	12139
#	24513
#	37180
#	47312
#	66136
#	76059
#	89565
#	101653
#	118717
#	131187
#	144587
#	156158
#	166111
#	179442
#	190807
#	204670
#	214922
#	224034
#	235992
#
# Disc length: 3280 seconds
# Revision: 0
# Processed by: cddbd v1.5.2PL0 Copyright (c) Steve Scherf et al.
# Submitted via: dBpowerAMP V12.0
#
DISCID=210cce14
DTITLE=Ronny CD3 - Das Beste - Das große Lebenswerk
DYEAR=2016
DGENRE=Volkstümlich
TTITLE0=Aloha oe
TTITLE1=Wo de Nordseewellen trekken an den Strand
TTITLE2=Träumendes Mädchen
TTITLE3=Gold und Silber lieb' ich sehr
TTITLE4=Einmal vergeht der schönste Sommer (City Of New Orleans)
TTITLE5=Das Lieben bringt groß' Freud
TTITLE6=Leb' wohl, doswidanja
TTITLE7=Mexico Moon
TTITLE8=Sag warum willst Du von mir gehen (High Noon)
TTITLE9=Valeri, Valera - Sie zogen in die Nacht
TTITLE10=Ich weiß nicht, was soll es bedeuten (Loreley)
TTITLE11=Donna Eliza von Kingstontown (Die Sonne geht auf, die Sonne geht unter)
TTITLE12=Drei Lilien
TTITLE13=Nun leb wohl
TTITLE14=Träume, Liebling
TTITLE15=Darling, Good Night
TTITLE16=Eine kleine Träne
TTITLE17=Geisterreiter
TTITLE18=Mary, Oh Mary (Gotta Travel On)
TTITLE19=Wem Gott will rechte Gunst erweisen
EXTD=
EXTT0=
EXTT1=
EXTT2=
EXTT3=
EXTT4=
EXTT5=
EXTT6=
EXTT7=
EXTT8=
EXTT9=
EXTT10=
EXTT11=
EXTT12=
EXTT13=
EXTT14=
EXTT15=
EXTT16=
EXTT17=
EXTT18=
EXTT19=
PLAYORDER=
